Coordinates
version=1
nRows=14
nColumns=24
inDegrees=yes

Units are S.I. units (second, meters, Newtons, ...)
Angles are in degrees.

endheader
time	pelvis_tilt	pelvis_list	pelvis_rotation	pelvis_tx	pelvis_ty	pelvis_tz	hip_flexion_r	hip_adduction_r	hip_rotation_r	knee_angle_r	ankle_angle_r	subtalar_angle_r	mtp_angle_r	hip_flexion_l	hip_adduction_l	hip_rotation_l	knee_angle_l	ankle_angle_l	subtalar_angle_l	mtp_angle_l	lumbar_extension	lumbar_bending	lumbar_rotation
      4.34000000	     -6.13677061	      0.35558984	      6.55649274	      0.11231966	      0.99435993	      0.06810788	     10.47295709	     -1.14586918	    -15.89358650	     -8.62341899	      1.34730743	      0.00000000	      0.00000000	     17.36713880	     -9.84143204	     -8.35665299	    -54.20969852	      1.65638435	      0.00000000	      0.00000000	     -1.09337149	      1.80248323	      7.01612232
      4.35000000	     -6.13517815	      0.46316230	      6.49129968	      0.11080298	      0.99465719	      0.06958246	     10.04514388	     -1.10184184	    -15.91846191	     -8.53756591	      1.57423824	      0.00000000	      0.00000000	     17.98412755	     -9.67600386	     -8.39381466	    -53.86170758	      2.23441192	      0.00000000	      0.00000000	     -1.12738909	      1.69185657	      7.34464000
      4.36000000	     -6.15542592	      0.56345407	      6.45161188	      0.10932258	      0.99491389	      0.07091514	      9.63679625	     -1.06236953	    -15.92788066	     -8.46706616	      1.80425059	      0.00000000	      0.00000000	     18.58109041	     -9.46139274	     -8.37414157	    -53.29078031	      2.76751656	      0.00000000	      0.00000000	     -1.12005326	      1.59296203	      7.64165512
      4.37000000	     -6.19995834	      0.70493499	      6.45781239	      0.10778834	      0.99508141	      0.07211751	      9.25424508	     -1.08778861	    -15.90109269	     -8.41134534	      2.08070236	      0.00000000	      0.00000000	     19.18085601	     -9.17872388	     -8.36975743	    -52.55846212	      3.37090390	      0.00000000	      0.00000000	     -1.09617539	      1.43087615	      7.86887914
      4.38000000	     -6.23112391	      0.77989848	      6.43803613	      0.10614115	      0.99520490	      0.07325027	      8.90528024	     -1.04555584	    -15.89460759	     -8.41067143	      2.29080604	      0.00000000	      0.00000000	     19.76248133	     -8.92604545	     -8.27996619	    -51.69050910	      3.71859893	      0.00000000	      0.00000000	     -1.10405008	      1.35700167	      8.14755799
      4.39000000	     -6.34503983	      1.21331703	      6.45707429	      0.10446230	      0.99524316	      0.07408416	      8.65754870	     -1.43882468	    -15.82835965	     -8.56014090	      2.82823556	      0.00000000	      0.00000000	     20.28089579	     -8.23265137	     -8.28715177	    -50.54234386	      4.28480462	      0.00000000	      0.00000000	     -1.06374639	      0.86016965	      8.35981938
      4.40000000	     -6.43154973	      1.38109337	      6.47473327	      0.10282148	      0.99523051	      0.07496675	      8.33032431	     -1.51684723	    -15.74996768	     -8.52632338	      3.17018745	      0.00000000	      0.00000000	     20.80747971	     -7.83904270	     -8.23176366	    -49.29169807	      4.48377717	      0.00000000	      0.00000000	     -1.02044590	      0.66206874	      8.60558901
      4.41000000	     -6.48144758	      1.35382270	      6.50080751	      0.10113835	      0.99513863	      0.07583045	      8.01579762	     -1.38929298	    -15.71583825	     -8.54950223	      3.36957833	      0.00000000	      0.00000000	     21.32418977	     -7.66243739	     -8.11896680	    -47.95662837	      4.60291921	      0.00000000	      0.00000000	     -1.00360648	      0.68016443	      8.85750076
      4.42000000	     -6.59701323	      1.78438290	      6.51356647	      0.09946433	      0.99506631	      0.07647037	      7.72286473	     -1.77857673	    -15.58171854	     -8.58556821	      3.87721699	      0.00000000	      0.00000000	     21.68403201	     -6.96388163	     -8.18019283	    -46.26679176	      4.58691148	      0.00000000	      0.00000000	     -0.97404253	      0.17517743	      9.09573767
      4.43000000	     -6.65704271	      1.70482766	      6.57186124	      0.09776260	      0.99484035	      0.07716073	      7.41562627	     -1.60333291	    -15.55249547	     -8.60524915	      4.09681616	      0.00000000	      0.00000000	     22.15917514	     -6.84856700	     -8.11904400	    -44.71166032	      4.63457037	      0.00000000	      0.00000000	     -0.95029796	      0.24095279	      9.31996888
      4.44000000	     -6.75623988	      1.69403071	      6.63645028	      0.09612015	      0.99453004	      0.07775862	      7.09942037	     -1.50595611	    -15.49969753	     -8.54083272	      4.39007448	      0.00000000	      0.00000000	     22.59007998	     -6.65492537	     -8.13242208	    -42.97569076	      4.61051078	      0.00000000	      0.00000000	     -0.88140926	      0.21829976	      9.52459281
      4.45000000	     -6.83988603	      2.22649053	      6.62432019	      0.09445272	      0.99441740	      0.07826168	      6.72799066	     -1.99569815	    -15.34380992	     -8.50761747	      4.90289766	      0.00000000	      0.00000000	     22.74542688	     -5.91201993	     -8.44508026	    -40.85543439	      4.11033814	      0.00000000	      0.00000000	     -0.92215978	     -0.42320881	      9.79238703
      4.46000000	     -6.90777274	      2.08195732	      6.72614954	      0.09272192	      0.99398657	      0.07870665	      6.42807793	     -1.77410366	    -15.36167857	     -8.53578682	      5.13649249	      0.00000000	      0.00000000	     23.16052361	     -5.87857713	     -8.52608243	    -39.05640542	      4.16026842	      0.00000000	      0.00000000	     -0.89844907	     -0.29447343	      9.94345969
      4.47000000	     -6.95202673	      2.47008960	      6.70398789	      0.09118575	      0.99382226	      0.07907878	      5.97771757	     -2.10428833	    -15.26847797	     -8.40308463	      5.56732758	      0.00000000	      0.00000000	     23.19937415	     -5.31335669	     -8.95919697	    -36.71944032	      3.58512276	      0.00000000	      0.00000000	     -0.94750984	     -0.76889599	     10.22631519
